# xmcd
#
# Track frame offsets: 
#        150
#        13624
#        25799
#        36058
#        46650
#        60955
#        74165
#        85474
#        96680
#        110688
#        121986
#        133964
#        146163
#        158678
#        170458
#        182198
#        194181
#        205500
#        219121
#        231864
#        243330
#        255317
#
# Disc length: 3534 seconds
#
# Revision: 0
# Processed by: cddbd v1.5.1PL2 Copyright (c) Steve Scherf et al.
# Submitted via: ExactAudioCopy v0.95b3
#
DISCID=3e0dcc16
DTITLE=Various Artist - The Complete Motown Singles Volume 3 [CD15)
DYEAR=2005
DGENRE=R&B/Soul
TTITLE0=Kim Weston - Just Loving You
TTITLE1=Kim Weston - Another Train Coming
TTITLE2=The Darnells - Too Hurt To Cry, Too Much In Love To Say Goodby
TTITLE2=e
TTITLE3=The Darnells - Come On Home
TTITLE4=Howard Crockett - The Big Wheel
TTITLE5=Howard Crockett - That Silver Haired Daddy Of Mine
TTITLE6=Carolyn Crawford - Forget About Me
TTITLE7=Carolyn Crawford - Devil In His Heart
TTITLE8=The Supremes - When The Lovelight Starts Shining Through His E
TTITLE8=yes
TTITLE9=The Supremes - Standing At The Crossroads Of Love
TTITLE10=The Miracles - I Gotta Dance To Keep From Crying
TTITLE11=The Miracles - Such Is Love, Such Is Life
TTITLE12=Martha and The Vandellas - Quicksand (1st Pressing)
TTITLE13=Martha and The Vandellas - Darling, I Hum Our Song
TTITLE14=Martha and The Vandellas - Quicksand (2nd Pressing)
TTITLE15=The Miracles - The Christmas Song (Chestnuts Roasting On An O
TTITLE15=pen Fire)
TTITLE16=The Miracles - Christmas Everyday
TTITLE17=Liz Lands - May What He Lived For Live
TTITLE18=Liz Lands - He's Got The Whole World In His Hands
TTITLE19=Eddie Holland - Leaving Here
TTITLE20=Patrice Holloway - Stevie
TTITLE21=Patrice Holloway - (He Is) The Boy Of My Dreams
EXTD=
EXTT0=
EXTT1=
EXTT2=
EXTT3=
EXTT4=
EXTT5=
EXTT6=
EXTT7=
EXTT8=
EXTT9=
EXTT10=
EXTT11=
EXTT12=
EXTT13=
EXTT14=
EXTT15=
EXTT16=
EXTT17=
EXTT18=
EXTT19=
EXTT20=
EXTT21=
PLAYORDER=
